<svg width="32" height="32" viewBox="0 0 32 32" fill="none" xmlns="http://www.w3.org/2000/svg">
<rect width="32" height="32" rx="8" fill="#2C2C2C"/>
<path d="M14.5884 7.37195C15.5105 5.53547 18.1201 5.50251 19.0883 7.31512L26.0041 20.2633C26.9079 21.9552 25.6819 24 23.7636 24V24C22.8254 24 21.9635 23.4828 21.5222 22.6548L14.6169 9.70104C14.23 8.97529 14.2194 8.10694 14.5884 7.37195V7.37195Z" fill="#4680FF"/>
<path d="M10.553 24C8.06748 24 6.50081 21.3247 7.71687 19.157V19.157C8.97125 16.9211 12.1991 16.9483 13.4155 19.2051V19.2051C14.5833 21.3717 13.0142 24 10.553 24V24Z" fill="#D9D9D9"/>
</svg>
